<svg xmlns="http://www.w3.org/2000/svg" viewBox="0 0 263.9 271.78">
    <path d="M138.11,95.82a28.3,28.3,0,0,0-5-11.46c-5.42,7.38-12.64,10.74-21.81,10.19,0-1.19,0-2.29,0-3.39,0-.22.51-.51.82-.58a17.14,17.14,0,0,0,10.11-6.51,19.78,19.78,0,0,0,3-6.14.85.85,0,0,0-.45-1.18,28.68,28.68,0,0,0-9.78-3.7l-.94-.2V53.48c.38,0,.7,0,1,0q22.76,0,45.51,0c9.34,0,17,6,19,14.79.3,1.35.41,2.75.63,4.3h-1.37c-5.86,0-11.73,0-17.59,0-.83,0-1.13.18-1.12,1.08q0,10.66,0,21.33c0,.67.15,1,.87,1.11A15.59,15.59,0,0,1,174,111.59q.06,12,0,24a1.66,1.66,0,0,0,1,1.66c15.38,9,24.36,22.36,26.79,40.05a44.43,44.43,0,0,1,.38,5.88c0,8.75.08,17.5,0,26.25a24.21,24.21,0,0,1-18,23.21,25.55,25.55,0,0,1-6.39.86q-28.65.11-57.3,0a24.37,24.37,0,0,1-24.45-24.35c-.07-8.62-.22-17.25,0-25.86.57-20.41,9.8-35.81,27.38-46.19a1.4,1.4,0,0,0,.79-1.39c0-8.06,0-16.12,0-24.18a15.61,15.61,0,0,1,12.19-15.39C137,96,137.48,96,138.11,95.82Zm11,127.06H177.3c8.36,0,14.28-5.95,14.29-14.33q0-12.24,0-24.48a40.53,40.53,0,0,0-.28-5.4C189.11,163.21,181,152,167,145.06a5.76,5.76,0,0,1-3.59-5.65c0-9.08,0-18.16,0-27.24,0-3.78-2-5.76-5.77-5.76h-17c-3.83,0-5.77,1.93-5.77,5.73,0,9.08,0,18.16,0,27.24a5.84,5.84,0,0,1-3.58,5.68c-15.84,8-24.11,20.87-24.59,38.59-.23,8.39,0,16.79,0,25.18a15.22,15.22,0,0,0,.27,2.93,13.73,13.73,0,0,0,13.61,11.12C130.08,222.9,139.59,222.88,149.09,222.88Z"/>
    <path d="M109.78,73.17h-4.4c-3,0-6,0-8.94,0-.53,0-.93,0-.92-.75,0-6.15,0-12.31,0-18.46a2.18,2.18,0,0,1,.08-.44,6.66,6.66,0,0,1,.75-.09c4.19,0,8.38,0,12.57,0,.64,0,.93.13.93.86,0,6,0,12.11,0,18.17C109.85,72.64,109.81,72.83,109.78,73.17Z"/>
    <path d="M71.66,67.57H60.75a3.52,3.52,0,1,1,0-7q11.06,0,22.1,0A3.51,3.51,0,0,1,84,67.41a5.42,5.42,0,0,1-1.45.15Z"/>
    <path d="M67.87,38.25a11,11,0,0,1,2.09.94q7.55,5.58,15,11.24A3.51,3.51,0,1,1,80.77,56q-7.53-5.61-15-11.24a3.5,3.5,0,0,1-1.3-4.1A3.89,3.89,0,0,1,67.87,38.25Z"/>
    <path d="M67.8,90.57A3.93,3.93,0,0,1,64.43,88a3.42,3.42,0,0,1,1.22-4c2.34-1.79,4.71-3.54,7.07-5.31,2.72-2,5.44-4.09,8.18-6.11A3.44,3.44,0,0,1,85,72.59a3.33,3.33,0,0,1,1.34,3.8,4.32,4.32,0,0,1-1.3,1.89Q77.53,84,69.9,89.65A10.44,10.44,0,0,1,67.8,90.57Z"/>
    <path d="M178.34,208.36H120V177.27h58.39Z"/>
</svg>