<svg xmlns="http://www.w3.org/2000/svg" viewBox="0 0 263.9 271.78">
    <path d="M84.14,91.87c0-4.37.13-8.1,0-11.82-.26-5.94,2.73-8.37,8.37-8.33,6.24,0,12.48,0,19.35,0,0-4.9.06-9.25,0-13.59-.08-4.5,2.22-6.53,6.54-6.53q51.59,0,103.16,0c4.24,0,6.08,1.9,6.08,6.08q-.06,39.95,0,79.89c0,8.76-6.45,7-12.6,7.33V162.8c0,10.46-1.38,11.86-11.88,12.12-.82,0-1.63.13-3.22.27,0,11.3,0,22.55,0,33.81,0,9.25-1.86,11.2-10.84,11.2q-70.12,0-140.26,0c-10.15,0-12.47-2.39-12.47-12.59q0-51.59,0-103.16c0-9.57,3-12.56,12.85-12.58C60.49,91.85,71.8,91.87,84.14,91.87Zm102.89,13H51.9V207.31H187ZM215,134c5.51,1.9,5.06-1.43,5.06-4.43q0-33,0-66.06a31.65,31.65,0,0,0-.5-4.07H122.25V71.73H204.3c9.23,0,10.68,1.42,10.69,10.39C215,99.31,215,116.49,215,134ZM94.48,82v9.84h7q43.41,0,86.81,0c9.11,0,11.53,2.41,11.54,11.46q0,28.3,0,56.62c0,3.12-.22,6.25,4.66,4.31V82Z"/>
    <path d="M60.44,199.61l32.35-37.83,22,20.49,29.25-33.08c11.26,16.87,22.21,33.29,33.63,50.42Z"/>
    <path d="M81.66,147.21a12.57,12.57,0,1,1,12.52-12.79A12.23,12.23,0,0,1,81.66,147.21Z"/>
</svg>