<svg xmlns="http://www.w3.org/2000/svg" viewBox="0 0 263.9 271.78">
    <path d="M71.58,109.85l-4.81,13.88H83.19c9.36,0,18.73-.16,28.08.1a22.36,22.36,0,0,1,9.13,2c7.79,3.84,15.23,3.8,23,0a23.71,23.71,0,0,1,9.69-2.06c12.72-.23,25.45-.1,38.18-.1h6.13c-.93-4.25-1.7-7.82-2.57-11.82-1.41.32-2.57.63-3.74.85-12.29,2.34-23.31-6.26-23.61-19.14a64.5,64.5,0,0,1,2.13-18.25c4.67-17.21,22.41-23.45,36-12.07,8.36,7,15.61,15.59,22.12,24.38C234.66,97,240.22,107.2,246,117.25a19.26,19.26,0,0,1,2,9c.22,25.08.23,50.17.27,75.25,0,9.42-3.3,12.71-12.82,12.72q-37.9,0-75.82,0c-9.54,0-13.35-2.67-16.82-11.67-2.34-6.08-4.51-12.25-7-18.27-.79-1.89-2.43-3.43-3.68-5.13-1.3,1.62-3.05,3.06-3.82,4.9-2.81,6.7-5.32,13.53-7.91,20.33-2.47,6.5-7.11,9.84-14.1,9.84-26.58,0-53.17.05-79.75,0-7,0-10.76-3.73-10.78-10.74q-.12-39.86.07-79.73a12.46,12.46,0,0,1,2-6.26c10.71-16.94,22-33.49,36.61-47.36a65.48,65.48,0,0,1,12-9.09c12.39-7.15,27.24-2.32,31.64,11.23A63.51,63.51,0,0,1,100.76,97C99.64,109.31,85.38,118.14,71.58,109.85Zm166.26,23.89a16.42,16.42,0,0,0-2.41-.36c-27.14,0-54.28-.06-81.43,0a13.56,13.56,0,0,0-5.91,1.38c-10.75,5.52-21.36,5.51-32.19.1a19,19,0,0,0-8.13-1.48c-25.27-.1-50.54-.06-75.81-.06H26.15V204.6c26.73,0,53.09.11,79.44-.21,2,0,4.8-2.7,5.77-4.81,3.18-6.94,5.74-14.16,8.42-21.31,2.13-5.67,6.11-9.13,12.13-9.17s10,3.45,12.18,9.08c2.52,6.62,5.33,13.14,7.54,19.86,1.58,4.82,4.21,6.73,9.41,6.68,24-.22,47.92-.09,71.88-.11,1.62,0,3.25-.2,4.92-.3ZM74.4,78.23l1.45.7c.56,6.28.81,12.62,1.78,18.84.94,6,5.17,7.67,9.53,3.48,2.29-2.2,3.63-5.94,4.24-9.2s-.06-6.71-.52-10c-.79-5.56-2.76-10.51-8.36-13-5.92-2.66-11.27-.93-15.42,3.28-7.84,8-15.59,16.1-22.66,24.75-6.65,8.15-12.38,17-19.29,26.7,10.5,0,19.42.13,28.33-.15,1.26,0,3-1.82,3.6-3.19,2.51-6.22,4.46-12.66,7-18.86C67.32,93.67,70.94,86,74.4,78.23Zm164.49,45.49C231.28,111.86,225,101.09,217.69,91a124.39,124.39,0,0,0-17.42-19.6c-7.76-7-18.47-3.71-21.16,6.33-1.46,5.46-1.56,11.44-1.36,17.16.17,4.77,5,8.88,9,8.38,5.07-.64,4.73-5.16,5.22-8.65.69-5,.85-10.07,1.24-15.11a16.06,16.06,0,0,1,4.5,7.22c3.13,10.9,5.94,21.9,9.16,32.78.48,1.64,2.5,4,3.89,4C219.5,123.91,228.25,123.72,238.89,123.72Z"/>
    <path d="M189.35,144.07c10.66,0,21.32.09,32,0,4.78-.05,6.76,2.07,6.72,6.77q-.15,18.24,0,36.47c0,4.7-2.12,6.92-6.74,6.92-17.4,0-34.79-.05-52.19,0-4.42,0-6.5-2.65-7.56-6.21-3.07-10.34-5.9-20.76-8.81-31.15-.15-.54-.17-1.11-.32-1.65-2.89-11-2.79-11.15,8.87-11.15Z"/>
    <path d="M68.48,194.21c-8.41,0-16.83-.08-25.24,0-5.05.06-7.54-1.89-7.45-7.29.21-12.15.15-24.31,0-36.46,0-4.51,1.88-6.45,6.35-6.43,21.5.06,43,0,64.5.06,5.83,0,7.15,1.73,5.72,7.16-3.14,11.87-6.4,23.71-9.67,35.55-1.48,5.37-4.75,7.85-10.68,7.5C84.2,193.87,76.33,194.21,68.48,194.21Z"/>
</svg>